# xmcd CD database file
#
# Track frame offsets:
#	150
#	3288
#	26098
#	45848
#	66466
#	84845
#	104996
#	122076
#	140744
#	158155
#	177541
#	203683
#	218797
#
# Disc length: 3140 seconds
#
# Revision: 0
# Processed by: cddbd v1.5.2PL0 Copyright (c) Steve Scherf et al.
# Submitted via: CDex 1.51
#
DISCID=b60c420d
DTITLE=William Green - Green Valley
DYEAR=2006
DGENRE=Jazz
TTITLE0=In The Beginning (Intro)
TTITLE1=In The Beginning
TTITLE2=Keep It Real
TTITLE3=Island Breeze
TTITLE4=Feel Me Baby
TTITLE5=Brother Man
TTITLE6=Speakless
TTITLE7=Dirty South
TTITLE8=C U 2Morrow
TTITLE9=Lakeshore Drive (L.S.D)
TTITLE10=Nice and Nasty
TTITLE11=Special Moments
TTITLE12=Green Valley
EXTD=YEAR: 2006
EXTT0=
EXTT1=
EXTT2=
EXTT3=
EXTT4=
EXTT5=
EXTT6=
EXTT7=
EXTT8=
EXTT9=
EXTT10=
EXTT11=
EXTT12=
PLAYORDER=
